<?xml version="1.0" standalone="no"?>
<!DOCTYPE svg PUBLIC "-//W3C//DTD SVG 20010904//EN"
 "http://www.w3.org/TR/2001/REC-SVG-20010904/DTD/svg10.dtd">
<svg version="1.0" xmlns="http://www.w3.org/2000/svg"
 width="710.000000pt" height="266.000000pt" viewBox="0 0 710.000000 266.000000"
 preserveAspectRatio="xMidYMid meet">

<g transform="translate(0.000000,266.000000) scale(0.100000,-0.100000)"
fill="#000000" stroke="none">
<path d="M0 1330 l0 -1330 3550 0 3550 0 0 1330 0 1330 -3550 0 -3550 0 0
-1330z m1715 1184 c28 -13 95 -104 76 -104 -4 0 -1 -30 7 -67 16 -78 11 -235
-13 -408 -18 -127 -24 -156 -38 -172 -11 -15 -160 -16 -392 -4 -90 5 -152 5
-156 0 -3 -6 -11 8 -19 30 -11 34 -10 55 4 139 9 55 13 107 10 116 -5 14 -27
16 -149 16 -128 0 -144 -2 -148 -17 -15 -54 -29 -134 -47 -268 -11 -82 -27
-197 -35 -255 -36 -245 -42 -294 -37 -312 7 -29 22 -21 24 15 l1 32 4 -32 4
-33 114 0 c106 0 115 2 125 21 7 11 18 82 26 157 19 179 25 187 125 187 41 -1
170 -5 287 -9 237 -10 232 -11 232 55 0 24 8 45 25 63 l24 26 261 0 c240 0
264 -2 299 -20 46 -23 81 -75 81 -118 0 -30 15 -50 28 -37 4 3 7 35 7 70 0
101 7 105 185 105 89 0 150 -4 157 -11 7 -7 30 -6 77 5 142 33 250 -7 258 -97
2 -20 8 -36 13 -35 6 2 9 6 8 10 -2 4 3 5 10 3 7 -3 23 12 36 33 13 21 39 49
59 63 33 22 47 24 174 27 l138 4 0 61 c0 46 5 68 21 92 l22 31 131 -1 c86 0
139 -5 154 -13 12 -7 22 -10 22 -6 0 3 7 1 15 -6 19 -16 20 -44 1 -37 -10 4
-17 -4 -21 -26 -4 -18 -15 -54 -26 -82 -15 -37 -18 -56 -11 -75 9 -25 9 -25
17 9 4 20 10 29 14 22 5 -8 16 -5 37 11 28 23 32 23 278 21 228 -2 252 -4 276
-21 14 -10 26 -31 28 -45 3 -26 4 -26 23 -8 16 15 19 27 15 57 -4 30 -4 33 3
14 8 -23 9 -24 10 -3 1 12 -3 33 -9 47 -12 32 2 115 21 127 8 5 68 9 134 9
102 0 125 -3 153 -20 17 -11 32 -25 33 -32 0 -7 0 -42 -1 -77 -1 -43 2 -61 9
-56 6 3 12 23 12 43 l2 37 6 -34 6 -33 140 1 c164 2 362 -14 402 -31 43 -20
60 -47 74 -116 14 -76 10 -126 -31 -377 -17 -104 -35 -244 -40 -309 -6 -78
-13 -122 -22 -127 -19 -12 -246 -11 -268 1 -13 7 -28 6 -47 -1 -15 -6 -73 -12
-128 -12 -80 -2 -109 2 -145 18 -52 22 -60 31 -60 65 0 14 -7 33 -14 43 -12
15 -15 11 -30 -40 -10 -32 -19 -64 -22 -70 -2 -10 -39 -13 -139 -13 -124 0
-137 2 -156 21 l-21 21 -23 -22 c-22 -21 -28 -21 -291 -18 -260 3 -270 4 -306
26 l-36 23 -28 -26 -27 -25 -256 5 c-301 5 -334 10 -374 57 -15 18 -30 29 -33
23 -2 -5 -12 -26 -22 -45 l-17 -35 -144 -3 c-124 -2 -146 0 -163 15 -18 16
-20 16 -48 0 -26 -16 -67 -17 -467 -14 -556 5 -536 -1 -541 154 -2 51 -8 91
-12 88 -5 -3 -5 7 -1 22 4 16 11 27 16 25 11 -4 24 29 18 45 -7 19 -48 -35
-77 -100 -39 -90 -82 -144 -138 -176 -51 -29 -54 -30 -227 -33 -97 -2 -329 -3
-516 -3 l-340 0 -66 32 c-84 42 -125 81 -139 135 -7 24 -16 53 -21 66 -18 46
-2 242 31 372 7 28 30 162 65 370 2 14 11 61 19 105 9 44 23 125 31 180 40
258 119 420 238 489 l42 24 305 -1 c168 -1 325 1 350 4 79 12 452 -2 485 -17z
m122 -301 c-3 -10 -5 -2 -5 17 0 19 2 27 5 18 2 -10 2 -26 0 -35z m-10 -195
c-2 -13 -4 -5 -4 17 -1 22 1 32 4 23 2 -10 2 -28 0 -40z m-887 18 c0 -3 -4 -8
-10 -11 -5 -3 -10 -1 -10 4 0 6 5 11 10 11 6 0 10 -2 10 -4z m250 -21 c0 -8
-2 -15 -4 -15 -2 0 -6 7 -10 15 -3 8 -1 15 4 15 6 0 10 -7 10 -15z m-283 -87
c-3 -8 -6 -5 -6 6 -1 11 2 17 5 13 3 -3 4 -12 1 -19z m-20 -120 c-3 -7 -5 -2
-5 12 0 14 2 19 5 13 2 -7 2 -19 0 -25z m910 0 c-3 -7 -5 -2 -5 12 0 14 2 19
5 13 2 -7 2 -19 0 -25z m2140 -45 c-3 -10 -5 -4 -5 12 0 17 2 24 5 18 2 -7 2
-21 0 -30z m-16 -46 c-10 -9 -11 -8 -5 6 3 10 9 15 12 12 3 -3 0 -11 -7 -18z
m1666 -309 c-2 -18 -4 -4 -4 32 0 36 2 50 4 33 2 -18 2 -48 0 -65z m-4750 50
c-3 -8 -6 -5 -6 6 -1 11 2 17 5 13 3 -3 4 -12 1 -19z m4740 -135 c-3 -10 -5
-4 -5 12 0 17 2 24 5 18 2 -7 2 -21 0 -30z m-4760 -20 c-3 -10 -5 -2 -5 17 0
19 2 27 5 18 2 -10 2 -26 0 -35z m5262 -90 c18 -12 28 -13 41 -5 15 9 143 15
328 14 38 0 72 -14 72 -31 0 -3 -84 -7 -188 -9 -208 -4 -204 -3 -218 -75 l-8
-42 -4 45 c-6 78 -12 80 -198 80 -89 0 -169 -3 -178 -6 -18 -7 -22 -24 -5 -24
7 0 18 -8 26 -17 13 -16 14 -16 9 -1 -3 9 2 19 10 22 25 10 172 7 179 -3 3 -6
14 -8 25 -6 11 2 23 -1 26 -7 4 -7 2 -8 -4 -4 -7 4 -12 2 -12 -4 0 -6 -4 -8
-10 -5 -5 3 -10 0 -10 -7 0 -10 -2 -10 -9 1 -7 11 -10 10 -12 -4 -4 -18 -5
-18 -21 -1 -10 10 -18 13 -18 8 0 -5 -18 -12 -40 -15 -39 -5 -100 -54 -100
-79 0 -6 -7 -4 -17 3 -9 8 -24 13 -33 11 -11 -2 -20 5 -23 18 -10 39 -25 19
-32 -43 -12 -115 -15 -112 100 -114 140 -4 146 -6 134 -42 -10 -28 -13 -30
-97 -37 -56 -4 -97 -3 -116 4 -37 15 -46 8 -45 -31 l1 -32 7 30 c4 20 9 26 14
18 9 -14 123 -18 191 -6 31 5 41 12 52 39 21 50 18 61 -23 72 l-38 10 39 1
c36 1 38 3 33 27 -5 28 20 63 41 56 7 -2 17 9 22 24 11 28 66 84 82 84 25 0
23 -30 -23 -273 -5 -26 -16 -59 -25 -72 l-16 -25 -184 0 c-179 0 -184 -1 -184
-21 0 -11 -4 -17 -10 -14 -15 9 -11 94 5 140 8 23 12 55 9 76 -7 45 22 203 44
237 28 43 64 51 232 52 129 0 160 -3 179 -17z m925 -20 c26 -28 26 -54 0 -28
-13 12 -48 15 -193 15 -165 0 -179 -1 -196 -20 -19 -21 -54 -161 -55 -218 0
-22 -4 -31 -11 -26 -16 9 -6 145 16 209 9 28 28 60 41 73 24 21 33 22 199 22
l174 0 25 -27z m-1457 -60 c-3 -10 -5 -2 -5 17 0 19 2 27 5 18 2 -10 2 -26 0
-35z m1357 21 c3 -8 12 -11 21 -8 8 3 15 1 15 -5 0 -6 6 -8 14 -5 18 7 26 -27
19 -85 -5 -41 -23 -84 -23 -53 0 7 -8 12 -19 12 -23 0 -53 -61 -33 -68 7 -2
12 -13 12 -25 0 -21 0 -21 -16 1 -16 23 -17 23 -37 5 -11 -10 -17 -12 -13 -5
5 9 -4 12 -34 12 l-41 0 15 29 c9 16 24 31 36 34 11 3 20 10 20 16 0 8 -6 9
-19 1 -31 -16 -111 -13 -111 5 0 8 6 15 13 15 8 0 19 10 25 23 l11 22 0 -22
c1 -17 5 -21 19 -16 23 8 52 39 45 47 -4 3 -1 6 5 6 7 0 12 -12 13 -27 l1 -28
9 30 c6 22 5 33 -4 40 -8 6 -19 20 -25 32 -11 19 -9 22 11 25 45 8 66 5 71 -8z
m-704 -7 c8 0 24 4 35 8 11 5 17 5 13 0 -4 -4 0 -14 9 -21 15 -10 11 -13 -32
-19 -28 -4 -58 -12 -68 -17 -25 -13 -30 -5 -22 32 6 26 10 30 28 24 12 -4 29
-7 37 -7z m206 -14 c-5 -17 -3 -29 6 -34 10 -7 10 -11 0 -21 -9 -9 -12 -9 -12
0 0 7 -7 5 -20 -5 -26 -23 -25 -34 5 -56 25 -18 25 -18 39 15 8 18 20 52 27
76 7 23 16 42 21 42 15 0 8 -40 -13 -82 -12 -23 -27 -59 -35 -80 -20 -57 -51
-97 -74 -95 -26 2 -25 7 4 34 20 20 24 37 17 75 0 4 -14 2 -31 -3 -16 -6 -28
-14 -27 -17 1 -4 -15 -34 -35 -67 -21 -33 -38 -55 -38 -50 0 6 7 21 16 33 8
12 11 22 6 22 -5 0 -23 -28 -41 -62 -65 -129 -73 -141 -83 -124 -6 11 9 50 54
135 35 66 69 132 76 146 10 19 11 30 3 39 -9 10 -7 15 9 19 25 6 32 -4 25 -40
-5 -25 -5 -26 4 -5 6 12 15 22 21 22 17 0 37 24 32 38 -2 6 1 12 7 12 6 0 11
7 11 15 0 14 19 44 29 45 2 0 0 -12 -3 -27z m121 5 c-3 -8 -6 -5 -6 6 -1 11 2
17 5 13 3 -3 4 -12 1 -19z m183 -35 c0 -20 -3 -33 -7 -30 -3 4 -13 1 -21 -6
-13 -10 -14 -8 -8 18 7 27 23 55 32 55 2 0 4 -16 4 -37z m327 15 c-3 -8 -6 -5
-6 6 -1 11 2 17 5 13 3 -3 4 -12 1 -19z m-1500 -50 c-3 -7 -5 -2 -5 12 0 14 2
19 5 13 2 -7 2 -19 0 -25z m393 1 c0 -45 -17 -59 -75 -59 -42 0 -55 3 -55 15
0 8 5 15 10 15 6 0 10 7 10 15 0 8 8 15 18 15 14 0 15 -2 2 -10 -13 -9 -13
-10 0 -11 29 -3 45 3 60 22 20 24 30 24 30 -2z m181 -60 c-9 -22 -10 -22 -10
-3 -1 11 2 24 6 27 12 12 14 0 4 -24z m-584 -1 c-3 -8 -6 -5 -6 6 -1 11 2 17
5 13 3 -3 4 -12 1 -19z m201 -5 c7 -7 22 -13 32 -13 10 0 20 -7 24 -15 3 -8 2
-15 -3 -15 -5 0 -11 -9 -14 -19 -4 -16 -13 -19 -53 -17 l-49 1 -3 47 c-3 47
-3 48 25 46 15 -1 34 -8 41 -15z m-211 -60 c-3 -10 -5 -4 -5 12 0 17 2 24 5
18 2 -7 2 -21 0 -30z m1176 7 c-3 -11 -14 -20 -24 -20 -18 0 -18 1 -2 20 10
11 21 20 24 20 4 0 5 -9 2 -20z m-878 -10 c18 -8 17 -9 -7 -9 -16 -1 -28 4
-28 9 0 12 8 12 35 0z m272 -42 c-3 -8 -6 -5 -6 6 -1 11 2 17 5 13 3 -3 4 -12
1 -19z m-580 -20 c-3 -7 -5 -2 -5 12 0 14 2 19 5 13 2 -7 2 -19 0 -25z m1309
5 c-3 -14 -11 -30 -18 -35 -7 -4 -69 -8 -138 -7 l-125 1 -3 -61 c-4 -77 -22
-81 -21 -3 2 109 -4 104 141 106 87 1 131 5 140 14 20 20 29 14 24 -15z m18
-108 c-9 -14 -19 -24 -21 -21 -3 3 2 15 11 28 9 12 17 32 17 43 2 18 2 18 6
-2 2 -12 -3 -33 -13 -48z m143 33 c-3 -7 -5 -2 -5 12 0 14 2 19 5 13 2 -7 2
-19 0 -25z m-2186 -29 l-10 -24 0 26 c-1 14 2 29 6 33 12 12 14 -9 4 -35z
m1963 9 c-10 -13 -23 -26 -29 -30 -13 -10 -155 -10 -155 0 0 21 78 50 139 51
l64 1 -19 -22z m176 3 c0 -15 -31 -42 -41 -35 -5 3 1 14 13 24 27 23 28 23 28
11z m-3850 -8 c0 -5 -5 -15 -10 -23 -8 -12 -10 -11 -10 8 0 12 5 22 10 22 6 0
10 -3 10 -7z m710 -43 c0 -5 -4 -10 -10 -10 -5 0 -10 5 -10 10 0 6 5 10 10 10
6 0 10 -4 10 -10z m650 -10 c0 -5 -5 -10 -11 -10 -5 0 -7 5 -4 10 3 6 8 10 11
10 2 0 4 -4 4 -10z m-2573 -211 c-3 -22 -8 -43 -10 -46 -13 -13 -27 12 -27 48
0 33 3 39 21 39 19 0 21 -4 16 -41z m712 27 c57 -30 59 -86 3 -148 l-24 -26
36 -62 c20 -33 36 -63 36 -64 0 -2 -11 -6 -25 -8 -21 -4 -29 3 -65 65 -45 79
-50 107 -19 107 36 0 59 19 59 50 0 39 -24 60 -69 60 -25 0 -44 7 -56 20 -18
20 -17 20 39 20 31 0 69 -6 85 -14z m1140 -8 c5 -13 28 -63 51 -113 l41 -89
47 109 c35 83 52 111 67 113 20 3 20 -2 17 -150 -3 -162 -5 -178 -22 -178 -6
0 -10 37 -10 96 0 88 -1 95 -16 83 -10 -8 -33 -49 -52 -91 -19 -43 -38 -78
-42 -78 -3 0 -21 37 -40 83 -41 101 -46 107 -54 66 -5 -27 -8 -30 -21 -19 -11
9 -15 35 -15 101 0 83 1 89 20 89 12 0 24 -9 29 -22z m1351 8 c0 -7 12 -40 26
-72 14 -33 31 -71 37 -86 7 -16 14 -28 17 -28 3 0 16 27 28 60 13 33 28 60 33
60 17 0 21 -28 8 -52 -7 -13 -27 -58 -44 -100 -37 -90 -29 -97 -101 87 -25 66
-49 126 -51 133 -3 8 4 12 21 12 15 0 26 -6 26 -14z m210 9 c0 -3 -9 -16 -20
-27 -15 -17 -23 -19 -32 -10 -8 8 -8 15 2 27 12 14 50 22 50 10z m-2804 -195
c-2 -60 -7 -113 -11 -119 -19 -32 -25 1 -25 132 1 142 1 142 20 119 17 -21 19
-36 16 -132z m1655 90 c17 -27 34 -50 37 -50 4 0 13 9 20 20 13 22 32 27 32 9
0 -6 -9 -24 -20 -39 l-20 -28 35 -53 c35 -54 43 -79 25 -79 -12 0 -60 70 -60
87 0 25 -19 12 -43 -30 -28 -46 -57 -77 -57 -59 0 6 16 38 36 72 l36 61 -40
64 c-37 59 -42 75 -20 75 4 0 22 -22 39 -50z m129 41 c0 -11 -29 -35 -35 -29
-10 9 7 38 21 38 8 0 14 -4 14 -9z m1840 -8 c0 -7 -5 -13 -10 -13 -6 0 -19
-20 -30 -44 -19 -46 -40 -68 -40 -42 0 8 5 27 12 41 15 33 -2 48 -49 41 -23
-3 -33 -1 -33 9 0 18 11 21 86 21 46 0 64 -3 64 -13z m-3261 -133 c46 -119 47
-120 26 -120 -16 0 -22 12 -55 105 -10 27 -23 51 -28 53 -6 2 -18 -17 -27 -43
-10 -25 -24 -45 -32 -45 -8 0 -13 3 -11 8 2 4 18 47 37 96 27 68 37 85 42 70
4 -10 26 -66 48 -124z m222 112 c43 -38 53 -95 26 -151 -23 -50 -51 -71 -99
-75 -19 -2 -40 -6 -45 -9 -6 -4 -13 -4 -17 0 -8 8 -8 123 0 123 12 0 33 -35
34 -56 0 -29 7 -33 43 -23 65 18 86 83 47 146 -35 59 -100 57 -100 -2 0 -36
-13 -47 -24 -19 -3 9 -6 33 -6 55 l0 39 55 0 c46 0 60 -5 86 -28z m125 6 c-3
-13 -6 -40 -6 -60 0 -29 -3 -36 -15 -32 -11 5 -15 21 -15 60 0 48 2 54 21 54
17 0 20 -4 15 -22z m261 -12 c28 -33 37 -66 29 -109 -7 -38 -31 -75 -41 -65
-4 4 -2 21 4 39 15 43 -2 104 -34 125 -25 16 -70 16 -107 -1 -13 -5 -18 -3
-18 9 0 24 37 36 94 32 39 -3 55 -9 73 -30z m576 -23 c-6 -65 -7 -68 -22 -58
-6 3 -11 31 -11 61 0 47 3 54 19 54 18 0 19 -5 14 -57z m555 37 c97 -60 50
-219 -70 -236 -18 -3 -39 -7 -45 -9 -10 -3 -13 14 -13 68 l0 72 19 -29 c11
-16 17 -34 15 -40 -2 -6 0 -17 5 -25 14 -22 73 3 95 40 35 59 -11 149 -75 149
-27 0 -29 -3 -29 -41 0 -61 -24 -45 -28 19 l-3 52 48 0 c30 0 60 -7 81 -20z
m252 10 c0 -5 -17 -10 -37 -10 -71 0 -84 -8 -81 -49 2 -29 8 -37 26 -39 31 -5
27 -18 -10 -33 -18 -7 -36 -14 -40 -17 -5 -2 -8 33 -8 77 l0 81 75 0 c43 0 75
-4 75 -10z m610 0 c0 -5 -20 -10 -44 -10 -59 0 -76 -8 -76 -35 0 -36 11 -55
31 -55 10 0 19 -4 19 -10 0 -9 -15 -14 -33 -11 -5 1 -11 -8 -14 -19 -12 -46
-28 -11 -31 68 l-3 82 76 0 c43 0 75 -4 75 -10z m142 -87 l53 -98 3 98 c2 84
5 97 20 97 15 0 17 -12 14 -112 -3 -85 -8 -117 -19 -130 -21 -24 -35 -12 -74
66 -37 74 -49 88 -49 58 0 -13 -6 -22 -15 -22 -12 0 -15 14 -15 70 0 98 17 92
82 -27z m298 87 c0 -5 -6 -10 -12 -10 -51 -2 -110 -9 -114 -13 -3 -3 -2 -21 1
-41 6 -29 12 -36 31 -36 34 0 30 -17 -6 -25 -18 -4 -30 -13 -30 -22 0 -13 -3
-13 -15 -3 -11 9 -15 33 -15 86 l0 74 80 0 c47 0 80 -4 80 -10z m306 -6 c-3
-9 -6 -38 -6 -65 0 -37 -4 -49 -15 -49 -12 0 -15 14 -15 65 0 59 2 65 21 65
15 0 19 -4 15 -16z m126 -81 c-5 -115 -13 -139 -47 -155 -36 -16 -101 4 -109
35 -14 53 -7 60 28 23 37 -40 70 -46 86 -17 5 11 10 60 10 109 0 88 3 102 25
102 8 0 10 -29 7 -97z m208 87 c0 -5 -15 -10 -32 -11 -18 -1 -40 -2 -48 -3 -8
-2 -23 -3 -33 -4 -13 -2 -17 -8 -13 -29 2 -16 5 -34 5 -40 1 -7 12 -13 26 -13
34 0 31 -16 -5 -29 -16 -5 -30 -15 -30 -22 0 -8 -4 -8 -15 1 -11 9 -15 33 -15
86 l0 74 80 0 c47 0 80 -4 80 -10z m85 -22 c-9 -39 -11 -42 -24 -33 -6 3 -11
19 -11 36 0 23 4 29 21 29 18 0 20 -4 14 -32z m315 -107 c28 -72 37 -108 30
-115 -6 -6 -13 -6 -18 -1 -7 9 -40 89 -56 138 -8 25 -24 13 -43 -34 -14 -37
-33 -52 -33 -27 0 7 14 50 32 97 25 65 34 80 40 65 4 -10 26 -66 48 -123z
m-4750 117 c0 -7 18 -58 40 -112 44 -109 47 -126 26 -126 -9 0 -25 31 -43 80
-15 44 -31 80 -36 80 -4 0 -17 -20 -29 -45 -20 -41 -38 -58 -38 -36 0 21 62
171 71 171 5 0 9 -6 9 -12z m-298 -132 l3 -61 58 -3 c42 -2 57 -7 57 -17 0
-11 -14 -15 -57 -15 -32 0 -68 -3 -80 -6 -23 -6 -23 -5 -23 96 0 102 0 103 20
85 14 -13 20 -33 22 -79z m1403 84 c4 -6 1 -18 -6 -26 -9 -11 -9 -23 0 -54 17
-59 65 -83 131 -68 29 6 15 -26 -15 -34 -69 -18 -143 29 -152 99 -7 59 21 116
42 83z m3325 -90 c0 -61 7 -70 56 -70 31 0 44 -4 44 -14 0 -11 -17 -15 -65
-18 l-65 -3 0 84 c0 73 2 82 15 71 9 -7 15 -29 15 -50z m-587 14 c3 -4 0 -16
-8 -28 -28 -40 -20 -56 30 -56 25 0 45 -4 45 -10 0 -14 -46 -23 -82 -16 -18 3
-37 1 -45 -5 -27 -23 -24 1 8 60 33 60 40 67 52 55z m-2833 -64 c0 -21 -7 -43
-15 -50 -13 -11 -15 -4 -15 50 0 54 2 61 15 50 8 -7 15 -29 15 -50z m840 0 c0
-21 -7 -43 -15 -50 -13 -11 -15 -4 -15 50 0 54 2 61 15 50 8 -7 15 -29 15 -50z
m-310 -5 c0 -21 -17 -45 -32 -45 -4 0 -8 23 -8 52 0 50 0 51 20 33 11 -10 20
-28 20 -40z m1820 -11 c0 -12 -7 -27 -15 -34 -13 -11 -15 -5 -15 41 0 49 1 51
15 33 8 -10 15 -29 15 -40z m-757 -4 c43 0 57 -4 57 -14 0 -11 -18 -15 -75
-18 l-75 -3 0 34 c0 32 1 33 18 18 13 -12 37 -17 75 -17z m610 -2 c82 -4 71
-22 -18 -28 l-75 -5 0 34 c0 32 1 33 18 18 10 -10 40 -17 75 -19z m363 17 c5
-11 22 -15 70 -15 50 0 64 -3 64 -15 0 -12 -16 -15 -80 -15 l-80 0 0 30 c0 31
16 41 26 15z m641 1 c5 -10 29 -16 67 -18 36 -2 61 -8 64 -15 3 -10 -17 -13
-77 -13 l-81 0 0 30 c0 32 14 40 27 16z m-4297 -20 c0 -8 -7 -19 -15 -26 -12
-10 -15 -10 -15 3 0 25 11 47 21 41 5 -3 9 -11 9 -18z m630 -1 c0 -8 -9 -19
-20 -25 -23 -12 -24 -10 -9 24 12 26 29 26 29 1z m4080 1 c0 -15 -28 -41 -36
-34 -2 3 1 17 7 31 12 26 29 28 29 3z"/>
<path d="M714 2463 l-162 -3 -50 -54 c-81 -85 -129 -202 -157 -381 -8 -49 -28
-164 -46 -255 -17 -91 -39 -217 -50 -280 -10 -63 -26 -151 -35 -195 -24 -128
-29 -284 -10 -342 21 -65 67 -118 124 -146 47 -22 48 -22 562 -21 570 1 545
-2 610 67 64 68 115 180 149 328 12 52 26 108 31 124 4 17 11 60 15 96 l6 66
-68 6 c-37 4 -163 9 -279 13 -243 8 -218 19 -229 -101 -12 -132 -26 -198 -47
-227 l-20 -29 -143 3 c-167 4 -176 8 -164 71 5 23 15 92 24 152 63 467 95 669
110 703 l15 32 140 0 c78 0 150 -5 160 -10 30 -16 40 -75 33 -181 l-6 -95 96
-12 c53 -7 168 -12 256 -12 l160 0 10 38 c5 20 17 107 26 192 27 241 9 379
-57 435 l-30 25 -406 -2 c-224 -1 -480 -4 -568 -5z m689 -140 c15 -37 29 -90
33 -118 9 -82 13 -93 30 -91 18 3 57 83 50 103 -8 19 12 16 23 -4 5 -10 16
-52 25 -93 21 -103 42 -167 48 -150 8 24 68 -26 68 -56 0 -14 -4 -23 -9 -20
-16 10 -41 -5 -41 -24 0 -10 10 -21 23 -25 22 -6 21 -7 -5 -15 -33 -10 -148
-1 -148 11 0 5 9 9 21 9 20 0 19 2 -8 34 -15 19 -32 35 -36 35 -5 1 -30 10
-57 22 -48 20 -54 30 -62 97 -1 7 -7 11 -15 8 -18 -7 -17 5 7 66 24 63 27 153
6 161 -8 3 -19 21 -24 39 -6 18 -13 40 -16 49 -4 10 0 23 9 33 26 25 48 5 78
-71z m-41 -949 c44 -49 59 -82 52 -109 -3 -14 0 -26 8 -32 8 -4 25 -26 38 -48
25 -43 46 -60 70 -60 23 0 26 -68 4 -86 -10 -8 -19 -10 -21 -4 -2 6 -13 26
-26 47 -12 20 -35 58 -51 85 -17 26 -45 68 -63 92 -18 24 -33 53 -33 65 0 12
-7 32 -16 44 -13 19 -12 42 2 42 2 0 19 -16 36 -36z m-205 -46 c-3 -7 -5 -2
-5 12 0 14 2 19 5 13 2 -7 2 -19 0 -25z m-87 -248 c-8 -5 -17 -7 -19 -4 -3 3
1 9 9 14 8 5 17 7 19 4 3 -3 -1 -9 -9 -14z m-174 -33 c3 -3 -4 -32 -16 -64
-12 -32 -28 -80 -34 -108 l-12 -50 -129 -3 c-79 -2 -132 1 -139 8 -7 7 -5 10
5 10 16 0 45 50 55 95 9 45 28 85 39 85 6 0 15 8 22 19 10 16 23 18 107 16 53
-1 99 -4 102 -8z m161 -39 c-3 -8 -6 -5 -6 6 -1 11 2 17 5 13 3 -3 4 -12 1
-19z m-562 -128 c-3 -10 1 -25 9 -33 14 -13 14 -16 0 -21 -26 -10 -124 -7
-124 4 0 6 4 10 10 10 9 0 39 21 63 46 6 5 19 11 29 11 14 1 17 -3 13 -17z
m560 -52 c-7 -5 -21 -5 -30 -1 -15 5 -14 8 6 19 18 9 26 9 31 1 4 -7 1 -15 -7
-19z"/>
<path d="M1486 2081 c-4 -5 -2 -12 3 -15 5 -4 12 -2 15 3 4 5 2 12 -3 15 -5 4
-12 2 -15 -3z"/>
<path d="M4609 1817 c-1 -1 -2 -54 -4 -117 -1 -70 -15 -192 -34 -310 -54 -328
-61 -371 -77 -475 -8 -55 -16 -111 -17 -125 l-2 -25 132 -3 131 -3 6 53 c3 29
8 87 11 128 3 41 9 98 15 125 5 28 19 109 30 180 12 72 27 166 35 210 46 268
49 293 37 319 -11 25 -14 26 -104 26 -51 0 -108 4 -126 9 -17 5 -33 9 -33 8z
m81 -51 c0 -3 -4 -8 -10 -11 -5 -3 -10 -1 -10 4 0 6 5 11 10 11 6 0 10 -2 10
-4z m-22 -32 c14 8 18 -21 11 -84 -3 -30 -7 -41 -8 -25 -1 17 -5 36 -10 43 -5
9 -11 -25 -15 -87 -5 -57 -12 -99 -17 -96 -5 4 -9 -1 -9 -9 0 -8 4 -17 9 -20
5 -4 4 -26 -3 -54 -12 -47 -11 -82 3 -82 3 0 8 -11 9 -24 2 -28 29 -132 37
-145 3 -6 19 -16 35 -25 29 -14 30 -13 31 7 0 12 2 18 4 12 3 -5 -2 -48 -9
-95 -8 -47 -14 -75 -15 -62 0 12 -5 22 -10 22 -11 0 -21 -51 -20 -104 0 -32 2
-37 9 -21 6 15 9 6 9 -33 l1 -54 -81 4 c-44 2 -83 6 -86 11 -2 4 5 7 16 7 25
0 27 22 4 46 -10 10 -17 30 -16 48 l2 31 -11 -35 c-6 -19 -10 -52 -9 -72 0
-20 -4 -40 -9 -43 -15 -9 -7 98 14 210 2 11 12 67 21 125 8 58 27 170 40 250
13 80 27 172 31 205 5 33 9 63 10 68 1 4 2 28 3 55 1 31 4 42 10 33 5 -7 13
-11 19 -7z"/>
<path d="M4717 1060 c-3 -11 -1 -20 4 -20 5 0 9 9 9 20 0 11 -2 20 -4 20 -2 0
-6 -9 -9 -20z"/>
<path d="M3608 1705 c-3 -53 -7 -98 -10 -100 -3 -3 -21 2 -41 10 -24 10 -70
15 -138 15 -90 0 -107 -3 -144 -24 -59 -35 -72 -71 -115 -306 -12 -63 -25
-133 -30 -155 -20 -85 -40 -259 -34 -291 13 -68 74 -93 227 -94 49 0 109 5
135 12 35 9 47 9 50 0 2 -8 39 -12 113 -12 l110 0 -6 73 c-6 69 1 130 39 352
8 44 21 125 30 180 32 199 55 311 74 367 11 31 18 59 15 62 -4 3 -66 6 -138 6
l-132 0 -5 -95z m111 -124 c3 -77 2 -123 -8 -236 -11 -139 -26 -260 -42 -338
-5 -27 -9 -58 -9 -70 0 -12 -6 -34 -14 -48 -7 -14 -12 -40 -11 -57 2 -25 -2
-32 -23 -37 -14 -3 -28 -2 -32 2 -4 4 -4 49 0 98 5 69 3 104 -9 148 -13 45
-19 55 -29 45 -9 -9 -12 -9 -12 3 0 15 21 77 31 94 4 6 6 65 5 133 -1 140 -2
142 -78 142 -46 0 -48 2 -68 41 -22 47 -18 64 14 54 11 -4 38 -8 59 -10 30 -2
37 1 37 16 0 27 35 24 55 -3 16 -23 16 -23 30 -3 39 54 55 64 80 53 13 -6 24
-18 24 -27z m-177 -173 c2 -6 -2 -57 -9 -112 -8 -56 -20 -146 -27 -201 -7 -55
-17 -108 -21 -118 -9 -21 -59 -33 -119 -29 -21 2 -21 -2 8 212 8 58 18 128 21
155 4 28 11 62 17 78 10 25 14 27 68 27 36 0 60 -5 62 -12z m-408 -482 c-4
-37 -9 -64 -12 -62 -2 3 -1 35 3 71 4 37 9 65 11 62 3 -2 2 -34 -2 -71z m231
-36 c-3 -5 6 -12 20 -16 15 -4 25 -13 25 -24 0 -11 5 -22 10 -25 6 -4 8 -11 5
-16 -8 -11 -125 -12 -125 0 0 5 -3 23 -6 41 -6 29 -5 32 14 26 13 -4 25 -1 34
8 14 17 33 22 23 6z"/>
<path d="M3432 1378 c-10 -13 -52 -283 -52 -337 0 -16 5 -33 10 -36 6 -3 10 1
10 11 0 13 3 14 14 5 22 -19 33 7 46 109 6 52 15 115 21 139 5 24 7 52 3 63
-3 12 -1 24 6 28 7 4 9 13 6 19 -10 15 -51 14 -64 -1z m32 -26 c-7 -4 -14 -18
-17 -32 -4 -21 -4 -20 -6 8 -1 24 3 32 17 32 11 0 13 -3 6 -8z m-27 -124 c-2
-13 -4 -5 -4 17 -1 22 1 32 4 23 2 -10 2 -28 0 -40z m-10 -70 c-3 -8 -6 -5 -6
6 -1 11 2 17 5 13 3 -3 4 -12 1 -19z m-10 -65 c-3 -10 -5 -4 -5 12 0 17 2 24
5 18 2 -7 2 -21 0 -30z"/>
<path d="M2915 1634 c-16 -3 -39 -8 -50 -13 -71 -29 -87 -31 -92 -11 -5 19
-15 20 -144 20 l-139 0 0 -107 c0 -60 -5 -135 -11 -168 -14 -85 -38 -226 -54
-325 -7 -47 -23 -123 -34 -169 -12 -46 -21 -88 -21 -92 0 -5 63 -9 140 -9
l140 0 0 78 c0 76 5 113 35 267 8 44 22 122 30 173 18 111 25 125 64 142 43
17 65 10 69 -23 3 -25 -19 -163 -48 -297 -6 -25 -15 -79 -20 -120 -9 -66 -21
-117 -46 -197 l-6 -23 143 0 144 0 1 83 c1 47 13 137 28 212 82 388 85 511 14
557 -27 18 -96 28 -143 22z m-275 -67 c0 -15 54 -40 77 -35 12 3 17 12 16 26
-2 12 2 22 7 22 6 0 10 -5 10 -11 0 -7 7 -17 15 -23 8 -6 16 -22 17 -36 2 -14
7 -28 12 -32 5 -3 -9 -15 -31 -27 -26 -13 -43 -29 -47 -46 -4 -14 -18 -35 -31
-47 -16 -13 -25 -32 -25 -50 0 -15 -4 -28 -10 -28 -5 0 -10 -17 -10 -38 0 -20
-9 -54 -20 -75 -11 -20 -20 -44 -20 -52 0 -8 -7 -15 -15 -15 -8 0 -15 5 -15
10 0 6 -6 9 -12 8 -8 -2 -14 11 -16 35 -3 32 -6 36 -18 26 -11 -9 -14 -9 -14
1 0 7 7 18 15 24 10 7 17 33 20 74 6 72 22 109 40 86 7 -10 17 -12 29 -8 19 7
19 35 0 177 -6 39 -4 47 10 47 9 0 16 -6 16 -13z m-111 -153 c-9 -11 -9 -14 0
-14 8 0 9 -5 1 -19 -5 -11 -10 -30 -9 -43 0 -22 1 -22 9 -3 7 16 9 17 9 3 1
-9 -5 -23 -13 -30 -7 -8 -21 -61 -30 -118 -9 -57 -19 -106 -21 -109 -11 -11
-3 75 20 215 14 82 25 168 25 191 0 74 15 83 18 10 2 -42 -2 -74 -9 -83z m401
-24 c-11 -41 -27 -88 -34 -105 -24 -52 -57 -195 -80 -343 -7 -45 -16 -85 -19
-89 -9 -8 -9 -2 8 97 7 47 21 130 30 184 23 147 43 221 80 310 27 65 37 29 15
-54z m-470 -401 c-7 -16 -9 -40 -6 -55 l7 -26 22 28 c26 34 67 116 62 125 -3
3 8 6 23 5 30 -1 30 1 12 -93 -7 -35 -16 -63 -21 -63 -5 0 -9 -11 -9 -25 0
-14 3 -25 8 -25 4 0 7 -14 8 -31 l1 -30 -67 2 c-37 1 -72 -1 -78 -5 -16 -10
-15 17 2 84 7 30 17 78 20 105 4 28 10 59 14 70 6 17 7 16 10 -9 2 -15 -2 -41
-8 -57z"/>
<path d="M2442 870 c0 -14 2 -19 5 -12 2 6 2 18 0 25 -3 6 -5 1 -5 -13z"/>
<path d="M1770 1604 c-6 -14 -10 -43 -10 -65 0 -22 -5 -60 -11 -85 -15 -58 -3
-73 37 -48 24 17 47 18 197 16 93 -1 174 -5 178 -8 5 -3 9 -13 9 -23 0 -36
-22 -41 -133 -35 -95 6 -111 5 -164 -16 -129 -51 -147 -91 -173 -388 -11 -128
-5 -154 39 -177 42 -21 267 -21 295 0 25 19 36 19 36 0 0 -13 20 -15 124 -15
l123 0 7 78 c3 42 16 131 27 197 65 385 67 414 39 488 -17 45 -30 63 -61 82
-38 25 -40 25 -294 25 l-255 0 -10 -26z m45 -86 c4 -26 11 -38 23 -38 10 -1 2
-8 -18 -19 -19 -10 -38 -16 -41 -15 -7 4 7 98 18 124 7 17 6 19 18 -52z m159
-3 c6 -29 11 -35 32 -35 14 0 27 7 31 17 6 15 7 14 13 -3 4 -10 6 -22 3 -26
-6 -11 -115 -9 -133 2 -13 8 -12 10 3 10 13 0 16 5 11 24 -3 14 -3 30 1 35 13
22 33 10 39 -24z m111 -35 c3 -5 1 -10 -4 -10 -6 0 -11 5 -11 10 0 6 2 10 4
10 3 0 8 -4 11 -10z m234 -93 c17 -21 -3 -164 -35 -250 -8 -20 -14 -71 -14
-111 0 -97 -32 -169 -85 -190 -15 -5 -16 -9 -6 -15 14 -9 10 -12 -53 -26 -28
-6 -28 -5 -22 29 9 50 -9 54 -52 13 l-37 -35 -130 2 c-71 2 -138 7 -149 11
-17 8 -18 16 -12 114 4 58 11 122 16 141 7 33 8 32 9 -19 1 -45 6 -60 28 -83
15 -15 34 -28 42 -28 9 0 28 -14 42 -31 35 -43 74 -46 130 -11 24 15 56 33 70
40 38 20 58 61 74 151 19 109 15 119 -43 114 -102 -9 -109 -12 -127 -48 -9
-20 -20 -33 -24 -31 -12 8 -51 -32 -51 -51 0 -25 -21 -1 -23 26 -1 11 -5 21
-9 21 -7 0 -21 77 -21 121 l0 26 -27 -31 c-26 -30 -40 -56 -46 -84 -7 -37 -16
-21 -10 18 7 48 40 91 88 116 31 16 68 19 68 4 0 -5 18 -19 40 -30 34 -17 40
-18 40 -5 0 8 5 15 10 15 6 0 10 -4 10 -9 0 -9 75 -31 105 -31 9 0 13 5 10 10
-3 6 0 10 8 10 8 0 20 7 27 15 9 10 9 15 1 15 -6 0 -11 -4 -11 -10 0 -5 -10
-10 -21 -10 -18 0 -19 2 -9 15 10 12 9 15 -6 16 -11 0 -5 5 13 10 17 5 41 21
52 35 11 14 24 23 30 20 5 -3 11 -3 13 1 6 14 52 42 69 42 9 1 22 -5 28 -12z
m-199 -239 c-1 -31 -29 -129 -43 -152 -17 -26 -78 -51 -102 -42 -9 3 -15 19
-15 40 0 34 23 137 35 156 9 15 125 13 125 -2z"/>
<path d="M2102 934 c-7 -8 -8 -14 -3 -14 10 0 25 19 20 25 -2 1 -10 -3 -17
-11z"/>
<path d="M2002 1113 c-6 -10 -13 -32 -16 -50 -9 -38 10 -55 23 -21 7 17 10 19
10 6 1 -10 5 -18 11 -18 14 0 31 37 24 54 -4 11 0 16 11 16 14 0 15 3 5 15
-17 20 -57 19 -68 -2z m38 -17 c0 -3 -4 -8 -10 -11 -5 -3 -10 -1 -10 4 0 6 5
11 10 11 6 0 10 -2 10 -4z"/>
<path d="M3975 1617 c-47 -27 -65 -46 -79 -79 -21 -49 -86 -460 -102 -640 l-7
-77 33 -31 32 -30 269 0 268 0 6 38 c4 20 10 51 15 67 12 44 19 102 13 108 -2
3 -20 -1 -38 -9 -50 -21 -298 -20 -315 1 -12 15 -10 99 3 112 3 3 92 5 196 5
169 0 191 2 195 16 16 56 48 345 44 412 -5 125 6 120 -277 119 -158 -1 -243
-5 -256 -12z m5 -53 c0 -4 -11 -17 -24 -29 -36 -34 -50 -93 -71 -300 -13 -129
-37 -251 -52 -265 -3 -3 -3 11 1 30 4 19 13 87 21 150 35 286 68 422 95 405 6
-4 10 -1 10 4 0 6 5 11 10 11 6 0 10 -3 10 -6z m260 -69 c0 -8 -9 -15 -20 -15
-11 0 -20 7 -20 15 0 8 9 15 20 15 11 0 20 -7 20 -15z m97 -67 c-3 -7 -5 -2
-5 12 0 14 2 19 5 13 2 -7 2 -19 0 -25z m-44 2 c9 -8 -10 -117 -21 -124 -4 -2
-42 -7 -84 -11 l-78 -7 0 43 c0 62 18 90 65 105 40 13 103 10 118 -6z m-3
-178 c0 -4 -10 -12 -22 -17 -27 -13 -33 -62 -11 -87 15 -17 14 -18 -31 -18
-44 0 -47 1 -41 23 18 60 31 93 40 99 13 10 65 10 65 0z m40 -377 c0 -14 -4
-25 -9 -25 -4 0 -6 -11 -3 -25 4 -21 1 -25 -20 -25 -35 0 -38 7 -20 43 29 62
52 76 52 32z m-160 -35 c0 -15 7 -20 26 -20 14 0 23 -4 19 -10 -7 -12 -62 -13
-69 -2 -7 12 5 52 15 52 5 0 9 -9 9 -20z m-265 -21 c10 -15 -1 -23 -20 -15 -9
3 -13 10 -10 16 8 13 22 13 30 -1z"/>
<path d="M4163 1400 c-13 -6 -23 -18 -23 -30 0 -23 15 -27 24 -5 5 13 9 13 26
3 18 -11 23 -10 35 5 10 14 14 15 18 5 3 -7 6 -3 6 10 1 19 -4 22 -31 21 -18
0 -43 -4 -55 -9z"/>
<path d="M4907 1601 c-11 -51 -20 -211 -13 -211 4 0 20 7 36 15 24 13 63 15
202 13 156 -3 173 -5 176 -21 2 -9 -5 -29 -16 -44 -20 -28 -20 -28 -129 -24
-135 4 -179 -8 -232 -59 -50 -48 -68 -90 -87 -200 -30 -167 -18 -252 41 -298
23 -19 37 -20 136 -17 89 3 118 8 145 25 43 25 44 25 44 0 0 -19 7 -20 125
-20 l125 0 0 68 c1 67 10 138 50 392 40 249 39 306 -5 359 -35 41 -106 51
-372 51 l-220 0 -6 -29z m323 -66 c0 -8 -9 -20 -20 -27 -11 -7 -20 -18 -20
-24 0 -18 -25 -24 -93 -24 -89 0 -107 17 -29 26 60 6 78 18 47 30 -30 12 -14
23 38 27 28 2 58 4 65 5 6 1 12 -5 12 -13z m-279 -55 c6 0 3 -7 -6 -16 -21
-21 -25 -16 -17 21 4 20 7 24 10 13 2 -10 8 -18 13 -18z m9 -245 c0 -15 -31
-64 -42 -67 -10 -4 -13 -47 -14 -177 -1 -94 -5 -175 -8 -179 -11 -11 -35 27
-43 67 -8 46 21 251 43 294 19 37 44 67 56 67 4 0 8 -2 8 -5z m290 -72 c-1
-55 -22 -169 -34 -188 -9 -14 -29 -25 -55 -29 -60 -9 -71 -1 -71 54 0 43 18
148 27 159 4 5 76 18 111 20 15 1 22 -5 22 -16z"/>
<path d="M5131 1117 c-21 -54 -23 -93 -7 -106 14 -12 16 -9 16 27 0 23 3 43 8
46 4 2 6 -14 3 -37 -3 -37 -2 -40 13 -28 10 8 16 29 16 52 0 32 -3 37 -17 32
-11 -4 -14 -3 -9 5 9 16 33 15 40 0 3 -7 5 -4 3 7 -1 14 -11 21 -30 23 -21 3
-29 -2 -36 -21z"/>
<path d="M2783 1368 c-10 -13 -15 -30 -39 -153 -44 -221 -65 -395 -47 -395 14
0 40 116 79 360 8 52 19 111 24 130 17 62 8 90 -17 58z"/>
<path d="M4857 1352 c-3 -4 -8 -34 -11 -67 -7 -59 -7 -60 10 -35 9 14 35 44
58 68 40 42 43 53 6 30 -16 -10 -24 -10 -40 -1 -10 7 -21 9 -23 5z"/>
<path d="M1720 1313 c1 -27 1 -27 15 -9 19 25 19 36 0 36 -10 0 -15 -10 -15
-27z"/>
<path d="M4455 1027 c-8 -19 -2 -31 13 -26 5 2 6 13 2 24 -7 19 -8 19 -15 2z"/>
<path d="M4102 1019 c4 -13 161 -23 236 -14 100 12 52 25 -94 25 -102 0 -145
-3 -142 -11z"/>
<path d="M5680 1139 c-7 -11 -10 -23 -7 -25 2 -2 9 7 15 21 14 30 7 33 -8 4z"/>
<path d="M5705 1129 c-4 -6 -5 -12 -2 -15 2 -3 7 2 10 11 7 17 1 20 -8 4z"/>
<path d="M5760 880 c-96 -5 -103 -6 -81 -19 18 -10 46 -12 104 -8 43 3 81 8
84 10 16 17 -13 21 -107 17z"/>
<path d="M6860 999 c-6 -23 -9 -43 -7 -46 3 -2 8 9 12 26 4 17 11 33 16 36 12
8 12 25 -1 25 -5 0 -14 -18 -20 -41z"/>
<path d="M6282 975 c-7 -14 -12 -31 -12 -38 1 -7 7 3 16 22 17 39 13 54 -4 16z"/>
</g>
</svg>
